# xmcd CD database file
#
# Track frame offsets:
#	150
#	12785
#	34142
#	54818
#	65936
#	81921
#	96141
#	127096
#	138759
#	159331
#	180596
#	193181
#	212799
#	230181
#	248112
#	267777
#	287939
#	302004
#	324107
#
# Disc length: 4440 seconds
#
# Revision: 0
# Processed by: cddbd v1.5.1PL0 Copyright (c) Steve Scherf et al.
# Submitted via: CDex 1.51
#
DISCID=0e115613
DTITLE=Crosby, Stills, Nash and Young - Crosby, Stills, Nash and Young - Disc 4
DYEAR=1991
DGENRE=Blues
TTITLE0=Wasted On The Way
TTITLE1=Barrel Of Pain (Half-Life)
TTITLE2=Southern Cross
TTITLE3=Daylight Again
TTITLE4=Thoroughfare Gap
TTITLE5=Wild Tales
TTITLE6=Dear Mr. Fantasy
TTITLE7=Cold Rain
TTITLE8=Got It Made
TTITLE9=Tracks In The Dust
TTITLE10=As I Come Of Age
TTITLE11=50/50
TTITLE12=Drive My Car
TTITLE13=Delta
TTITLE14=Soldiers Of Peace
TTITLE15=Yours And Mine
TTITLE16=Haven´t We Lost Enough?
TTITLE17=After The Dolphin
TTITLE18=Find The Cost Of Freedom
EXTD=YEAR: 1991
EXTT0=
EXTT1=
EXTT2=
EXTT3=
EXTT4=
EXTT5=
EXTT6=
EXTT7=
EXTT8=
EXTT9=
EXTT10=
EXTT11=
EXTT12=
EXTT13=
EXTT14=
EXTT15=
EXTT16=
EXTT17=
EXTT18=
PLAYORDER=
